<svg width="200" height="200">
   <defs>
    <linearGradient id="grad1" x1="0%" y1="0%" x2="100%" y2="0%">
      <stop offset="0%" style="stop-color:rgb(90,90,90);stop-opacity:1" />
      <stop offset="100%" style="stop-color:rgb(175,175,175);stop-opacity:1" />
    </radialGradient>
  </defs>
   <polygon points="0,200 200,200 200,0 0,0" style="stroke:purple;stroke-width:1" />
   <polygon points="10,165 30,165 60,80 75,120 85,120 115,20 160,185 190,185 190,195 10,195" fill="url(#grad1)" />
   <line x1="10" y1="165" x2="30" y2="165" style="fill:none;stroke:gainsboro;stroke-width:6" />
   <line stroke-linecap="round" x1="30" y1="165" x2="60" y2="80" style="fill:none;stroke:gainsboro;stroke-width:6" />
   <line stroke-linecap="round" x1="60" y1="80" x2="75" y2="120" style="fill:none;stroke:gainsboro;stroke-width:6" />
   <line stroke-linecap="round" x1="75" y1="120" x2="85" y2="120" style="fill:none;stroke:gainsboro;stroke-width:6" />
   <line stroke-linecap="round" x1="85" y1="120" x2="115" y2="20" style="fill:none;stroke:gainsboro;stroke-width:6" />
   <line stroke-linecap="round" x1="115" y1="20" x2="160" y2="185" style="fill:none;stroke:gainsboro;stroke-width:6" />
   <line x1="160" y1="185" x2="190" y2="185" style="fill:none;stroke:gainsboro;stroke-width:6" />
</svg> 
