<?xml version="1.0" encoding="UTF-8" standalone="no"?>
<!-- Created with Inkscape (http://www.inkscape.org/) -->

<svg
   xmlns:dc="http://purl.org/dc/elements/1.1/"
   xmlns:cc="http://creativecommons.org/ns#"
   xmlns:rdf="http://www.w3.org/1999/02/22-rdf-syntax-ns#"
   xmlns:svg="http://www.w3.org/2000/svg"
   xmlns="http://www.w3.org/2000/svg"
   xmlns:sodipodi="http://sodipodi.sourceforge.net/DTD/sodipodi-0.dtd"
   xmlns:inkscape="http://www.inkscape.org/namespaces/inkscape"
   version="1.0"
   width="22"
   height="22"
   id="svg2"
   sodipodi:version="0.32"
   inkscape:version="0.48.5 r10040"
   sodipodi:docname="stile.svg"
   inkscape:output_extension="org.inkscape.output.svg.inkscape">
  <defs
     id="defs22">
    <inkscape:perspective
       sodipodi:type="inkscape:persp3d"
       inkscape:vp_x="0 : 290 : 1"
       inkscape:vp_y="0 : 1000 : 0"
       inkscape:vp_z="580 : 290 : 1"
       inkscape:persp3d-origin="290 : 193.33333 : 1"
       id="perspective24" />
    <marker
       viewBox="0 0 10 10"
       refY="5"
       refX="10"
       orient="auto"
       markerWidth="4"
       markerUnits="strokeWidth"
       markerHeight="3"
       id="ArrowStart">
      <path
         id="path3568"
         d="M 10,0 0,5 10,10 z"
         inkscape:connector-curvature="0" />
    </marker>
    <marker
       viewBox="0 0 10 10"
       refY="5"
       refX="0"
       orient="auto"
       markerWidth="4"
       markerUnits="strokeWidth"
       markerHeight="3"
       id="ArrowEnd">
      <path
         id="path3565"
         d="M 0,0 10,5 0,10 z"
         inkscape:connector-curvature="0" />
    </marker>
    <inkscape:perspective
       id="perspective2683"
       inkscape:persp3d-origin="306.082 : 204.39034 : 1"
       inkscape:vp_z="612.164 : 306.58551 : 1"
       inkscape:vp_y="0 : 1000 : 0"
       inkscape:vp_x="0 : 306.58551 : 1"
       sodipodi:type="inkscape:persp3d" />
    <marker
       viewBox="0 0 10 10"
       refY="5"
       refX="10"
       orient="auto"
       markerWidth="4"
       markerUnits="strokeWidth"
       markerHeight="3"
       id="marker2959">
      <path
         id="path2626"
         d="M 10,0 0,5 10,10 z"
         inkscape:connector-curvature="0" />
    </marker>
    <marker
       viewBox="0 0 10 10"
       refY="5"
       refX="0"
       orient="auto"
       markerWidth="4"
       markerUnits="strokeWidth"
       markerHeight="3"
       id="marker2956">
      <path
         id="path2623"
         d="M 0,0 10,5 0,10 z"
         inkscape:connector-curvature="0" />
    </marker>
    <inkscape:perspective
       id="perspective2953"
       inkscape:persp3d-origin="306.082 : 204.39034 : 1"
       inkscape:vp_z="612.164 : 306.58551 : 1"
       inkscape:vp_y="0 : 1000 : 0"
       inkscape:vp_x="0 : 306.58551 : 1"
       sodipodi:type="inkscape:persp3d" />
    <marker
       viewBox="0 0 10 10"
       refY="5"
       refX="10"
       orient="auto"
       markerWidth="4"
       markerUnits="strokeWidth"
       markerHeight="3"
       id="marker3077">
      <path
         id="path3298"
         d="M 10,0 0,5 10,10 z"
         inkscape:connector-curvature="0" />
    </marker>
    <marker
       viewBox="0 0 10 10"
       refY="5"
       refX="0"
       orient="auto"
       markerWidth="4"
       markerUnits="strokeWidth"
       markerHeight="3"
       id="marker3074">
      <path
         id="path3295"
         d="M 0,0 10,5 0,10 z"
         inkscape:connector-curvature="0" />
    </marker>
    <inkscape:perspective
       id="perspective3071"
       inkscape:persp3d-origin="180.936 : 163.92867 : 1"
       inkscape:vp_z="361.87201 : 245.89301 : 1"
       inkscape:vp_y="0 : 1000 : 0"
       inkscape:vp_x="0 : 245.89301 : 1"
       sodipodi:type="inkscape:persp3d" />
    <inkscape:perspective
       id="perspective3724"
       inkscape:persp3d-origin="0.5 : 0.33333333 : 1"
       inkscape:vp_z="1 : 0.5 : 1"
       inkscape:vp_y="0 : 1000 : 0"
       inkscape:vp_x="0 : 0.5 : 1"
       sodipodi:type="inkscape:persp3d" />
  </defs>
  <metadata
     id="metadata10">
    <rdf:RDF>
      <cc:Work
         rdf:about="">
        <dc:format>image/svg+xml</dc:format>
        <dc:type
           rdf:resource="http://purl.org/dc/dcmitype/StillImage" />
        <cc:license
           rdf:resource="http://web.resource.org/cc/PublicDomain" />
        <dc:language>en</dc:language>
        <dc:title />
      </cc:Work>
    </rdf:RDF>
  </metadata>
  <sodipodi:namedview
     inkscape:window-height="935"
     inkscape:window-width="1215"
     inkscape:pageshadow="2"
     inkscape:pageopacity="0.0"
     guidetolerance="10.0"
     gridtolerance="10.0"
     objecttolerance="10.0"
     borderopacity="1.0"
     bordercolor="#666666"
     pagecolor="#ffffff"
     id="base"
     showgrid="false"
     inkscape:zoom="34.363636"
     inkscape:cx="10.490741"
     inkscape:cy="11"
     inkscape:window-x="65"
     inkscape:window-y="24"
     inkscape:current-layer="svg2"
     inkscape:window-maximized="1" />
  <g
     id="g2319"
     transform="translate(879.29125,-521.19488)">
    <path
       id="path2323"
       style="fill:#ffffff;stroke:none"
       d=""
       inkscape:connector-curvature="0" />
  </g>
  <g
     id="g2325"
     transform="translate(879.29125,-521.19488)">
    <path
       id="path2329"
       style="fill:#ffffff;stroke:none"
       d=""
       inkscape:connector-curvature="0" />
  </g>
  <path
     style="font-size:medium;font-style:normal;font-variant:normal;font-weight:normal;font-stretch:normal;text-indent:0;text-align:start;text-decoration:none;line-height:normal;letter-spacing:normal;word-spacing:normal;text-transform:none;direction:ltr;block-progression:tb;writing-mode:lr-tb;text-anchor:start;opacity:0.75000000000000000;color:#000000;fill:#323232;fill-opacity:1;stroke:none;stroke-width:50;marker:none;visibility:visible;display:inline;overflow:visible;enable-background:accumulate;font-family:Bitstream Vera Sans;-inkscape-font-specification:Bitstream Vera Sans"
     d="m 3.6970177,5.3034171 c -0.1984582,0.003 -0.3941099,0.0874 -0.5323585,0.2296 -0.138248,0.14217 -0.2173969,0.34042 -0.214604,0.53854 l 0,0.75748 0,0.33496 -0.3533255,0 c -0.250558,-0.003 -0.5009425,0.0966 -0.6793809,0.27223 -0.1784377,0.17562 -0.2821833,0.42448 -0.2821833,0.67463 0,0.25015 0.1037486,0.49901 0.2821833,0.67463 0.1784378,0.17564 0.4288223,0.27576 0.6793809,0.27224 l 0.3533255,0 0,2.8618999 -0.3533255,0 c -0.250558,-0.003 -0.5009425,0.0968 -0.6793809,0.27221 -0.1784377,0.17562 -0.2821833,0.42449 -0.2821833,0.67464 0,0.25014 0.1037486,0.49902 0.2821833,0.67464 0.1784378,0.17563 0.4288223,0.27575 0.6793809,0.27222 l 0.3533255,0 0,1.75289 0,0.75749 0,0.75748 1.5176367,0 0,-0.75748 0,-0.75749 0,-1.75289 3.5783065,0 0,-1.06285 0,-0.038 0,-0.0379 6.6538966,0 0,1.13859 3.274775,0 0,1.7529 0,0.75748 0,0.75749 1.517641,0 0,-0.75749 0,-0.75748 0,-1.7529 0.244234,0 c 0.250567,0.003 0.500946,-0.0966 0.679371,-0.27221 0.178424,-0.17562 0.282202,-0.42451 0.282202,-0.67464 0,-0.25015 -0.103747,-0.49902 -0.282202,-0.67464 -0.178455,-0.17562 -0.428816,-0.27575 -0.679371,-0.27222 l -0.244234,0 0,-2.8618999 0.244234,0 c 0.250567,0.003 0.500946,-0.0966 0.679371,-0.27223 0.178424,-0.17562 0.282202,-0.42448 0.282202,-0.67463 0,-0.25016 -0.103747,-0.49901 -0.282202,-0.67464 -0.178455,-0.17564 -0.428816,-0.27576 -0.679371,-0.27222 l -0.244234,0 0,-0.33496 0,-0.75748 c 0.0033,-0.20209 -0.07964,-0.40406 -0.222905,-0.54682 -0.143327,-0.14278 -0.345366,-0.22447 -0.547776,-0.22133 -0.198471,0.003 -0.394114,0.0874 -0.53236,0.2296 -0.138277,0.14217 -0.217409,0.34042 -0.2146,0.53855 l 0,0.75748 0,0.33496 -13.5069744,0 0,-0.33496 0,-0.75748 c 0.00285,-0.20209 -0.079654,-0.40406 -0.2229023,-0.54682 -0.1432544,-0.14278 -0.3453614,-0.22447 -0.5477723,-0.22133 z m 0.7706755,3.75431 13.5069758,0 0,2.8618999 -13.5069758,0 0,-2.8618999 z"
     id="path2900"
     sodipodi:nodetypes="csccccsssccccsssccccccccccccccccccccccccsssccccsssccccsssccccccscccccc"
     inkscape:connector-curvature="0" />
  <path
     style="fill:none;stroke:#878787;stroke-width:1.89538574000000004;stroke-linecap:square;stroke-linejoin:miter;stroke-miterlimit:4;stroke-opacity:1;stroke-dasharray:none"
     d="m 8.7929645,17.787787 5.3117295,0"
     id="path4403"
     inkscape:connector-curvature="0" />
  <path
     id="path4405"
     d="m 9.1084728,14.682077 4.5289532,0"
     style="fill:none;stroke:#878787;stroke-width:1.89500000000000002;stroke-linecap:butt;stroke-linejoin:miter;stroke-miterlimit:4;stroke-opacity:1;stroke-dasharray:none"
     inkscape:connector-curvature="0" />
</svg>
